<svg width="114" height="155" viewBox="0 0 114 155" fill="none" xmlns="http://www.w3.org/2000/svg">
<path d="M65.3931 10.1362L103.437 32.2103L103.437 96.2808L65.3931 74.1049L65.3931 10.1362Z" fill="#C7C7D0"/>
<path d="M13.2334 106.795L65.3929 73.8718L65.3929 10.1362L13.2334 43.1615L13.2334 106.795Z" fill="#BCBCC1"/>
<path d="M59.8164 27L42.0002 38.4818L42.0002 87.9819L59.8164 77.6321L59.8164 27Z" fill="#A1A1AA"/>
<path d="M38.8164 40L21.0002 51.5L21.0002 99.9819L38.8164 89.6321L38.8164 40Z" fill="#A1A1AA"/>
<path d="M12.7461 38.2717L55.2365 62.7484L55.2365 126.008L5.33496 99.5367L12.7461 38.2717Z" fill="white"/>
<path d="M2.86499 40.7419L47.8258 66.8527L47.8258 130.379L2.86499 104.478L2.86499 40.7419Z" fill="#C7C7D0"/>
<path d="M13.5 62.8679L31.3162 73.3497L31.3162 120.85L13.5 110.5L13.5 62.8679Z" fill="#A1A1AA"/>
<path d="M74 31L91.8162 41.4818L91.8162 88.9819L74 78.6321L74 31Z" fill="#A1A1AA"/>
<path d="M48.3203 67.029L55.2373 63.0765L55.2364 126.006L48.3193 130.664L48.3203 67.029Z" fill="#E2E2E8"/>
<path d="M103.931 32.2866L110.848 28.2578L110.848 91.4994L103.931 96.4401L103.931 32.2866Z" fill="#E2E2E8"/>
<path d="M2.8397 40.2201L65.3929 1.36441L72.2155 5.26303L10.1651 44.4495L2.8397 40.2201Z" fill="#EDEDF4"/>
<path d="M64.9056 9.16165L72.2155 5.26303L110.714 27.6801L103.694 31.7332L64.9056 9.16165Z" fill="#EDEDF4"/>
<path d="M10.1651 44.4495L16.8882 40.2036L55.3394 62.3807L48.3192 66.4338L10.1651 44.4495Z" fill="#EDEDF4"/>
<path d="M110.714 27.68L64.7653 1L2.37061 40.2479V104.478L47.8255 130.169L55.2366 125.723V80.7987L65.3929 74.4635L103.797 95.9733L110.714 91.0326V27.68Z" stroke="#181818"/>
</svg>
