<svg width="98" height="123" viewBox="0 0 98 123" fill="none" xmlns="http://www.w3.org/2000/svg">
<path d="M10.4995 57.5L97.2083 7.08113L97.2083 71.4564L10.4995 121.875L10.4995 57.5Z" fill="#E2E2E8"/>
<path d="M91.8159 23L75.9997 32.5L75.9997 82.9819L91.8159 73.6321L91.8159 23Z" fill="#A1A1AA"/>
<path d="M53.8159 46L37.9997 55.5L37.9997 105.982L53.8159 96.6321L53.8159 46Z" fill="#A1A1AA"/>
<path d="M72.8159 34L56.9997 43.5L56.9997 93.9819L72.8159 84.6321L72.8159 34Z" fill="#A1A1AA"/>
<path d="M34.8159 57L18.9997 66.5L18.9997 116.982L34.8159 107.632L34.8159 57Z" fill="#A1A1AA"/>
<path d="M1.49951 52.5L9.99951 57.5L9.99951 122L1.49952 117L1.49951 52.5Z" fill="#C7C7D0"/>
<path d="M87.8176 1.58108L96.7587 6.58109L10.5 57L1.99919 52L87.8176 1.58108Z" fill="#EDEDF4"/>
<path d="M97 6.5L88 1L1 52V117L10 122L97 70.5V6.5Z" stroke="#181818"/>
</svg>
