<svg width="329" height="248" viewBox="0 0 329 248" fill="none" xmlns="http://www.w3.org/2000/svg">
<path d="M48.2998 2H107.991V184.927V186.927H109.991H213.367V233.659L201.318 244.703L49.414 232.682L36.2363 13.058L48.2998 2Z" stroke="#181818" stroke-width="4"/>
<path d="M231.787 184.339V233.951L218.448 246.178" stroke="#181818" stroke-width="4"/>
<path d="M213.761 186.595L197.889 200.825" stroke="#181818" stroke-width="4"/>
<path d="M108.677 186.595L92.8047 200.825" stroke="#181818" stroke-width="4"/>
<path d="M107.582 2.69678L91.71 16.927" stroke="#181818" stroke-width="4"/>
<path d="M34.1831 12.2268H96.6518V197.153H202.028V246.765H34.1831V12.2268Z" fill="#181818"/>
<path d="M259.828 233.983H329L315.661 246.766H246.49L259.828 233.983Z" fill="#181818"/>
<rect x="26.2693" y="106.179" width="4.31351" height="4.31351" transform="rotate(180 26.2693 106.179)" fill="#85858C"/>
<rect x="26.269" y="126.054" width="4.31351" height="4.31351" transform="rotate(180 26.269 126.054)" fill="#85858C"/>
<rect x="26.2693" y="66.4282" width="4.31351" height="4.31351" transform="rotate(180 26.2693 66.4282)" fill="#85858C"/>
<rect x="26.2693" y="86.3035" width="4.31351" height="4.31351" transform="rotate(180 26.2693 86.3035)" fill="#85858C"/>
<rect x="26.2693" y="46.5527" width="4.31351" height="4.31351" transform="rotate(180 26.2693 46.5527)" fill="#85858C"/>
<rect x="46.1448" y="106.179" width="4.31351" height="4.31351" transform="rotate(180 46.1448 106.179)" fill="#85858C"/>
<rect x="46.1445" y="126.054" width="4.31351" height="4.31351" transform="rotate(180 46.1445 126.054)" fill="#85858C"/>
<rect x="46.1448" y="66.428" width="4.31351" height="4.31351" transform="rotate(180 46.1448 66.428)" fill="#85858C"/>
<rect x="46.1448" y="86.3035" width="4.31351" height="4.31351" transform="rotate(180 46.1448 86.3035)" fill="#85858C"/>
<rect x="46.1448" y="46.5527" width="4.31351" height="4.31351" transform="rotate(180 46.1448 46.5527)" fill="#85858C"/>
<rect x="66.02" y="106.179" width="4.31351" height="4.31351" transform="rotate(180 66.02 106.179)" fill="#85858C"/>
<rect x="66.02" y="126.054" width="4.31351" height="4.31351" transform="rotate(180 66.02 126.054)" fill="#85858C"/>
<rect x="66.02" y="66.428" width="4.31351" height="4.31351" transform="rotate(180 66.02 66.428)" fill="#85858C"/>
<rect x="66.02" y="86.3035" width="4.31351" height="4.31351" transform="rotate(180 66.02 86.3035)" fill="#85858C"/>
<rect x="66.02" y="46.5527" width="4.31351" height="4.31351" transform="rotate(180 66.02 46.5527)" fill="#85858C"/>
<path d="M134.15 165.824C132.666 165.824 131.322 165.502 130.118 164.858C128.928 164.2 127.99 163.297 127.304 162.149C126.632 161.001 126.296 159.706 126.296 158.264C126.296 156.822 126.639 155.527 127.325 154.379C128.011 153.231 128.949 152.335 130.139 151.691C131.343 151.033 132.687 150.704 134.171 150.704C135.375 150.704 136.474 150.914 137.468 151.334C138.462 151.754 139.302 152.363 139.988 153.161L138.224 154.82C137.16 153.672 135.851 153.098 134.297 153.098C133.289 153.098 132.386 153.322 131.588 153.77C130.79 154.204 130.167 154.813 129.719 155.597C129.271 156.381 129.047 157.27 129.047 158.264C129.047 159.258 129.271 160.147 129.719 160.931C130.167 161.715 130.79 162.331 131.588 162.779C132.386 163.213 133.289 163.43 134.297 163.43C135.851 163.43 137.16 162.849 138.224 161.687L139.988 163.367C139.302 164.165 138.455 164.774 137.447 165.194C136.453 165.614 135.354 165.824 134.15 165.824ZM155.018 163.325V165.614H143.993V150.914H154.724V153.203H146.723V157.025H153.821V159.272H146.723V163.325H155.018ZM165.579 150.914C166.853 150.914 167.959 151.124 168.897 151.544C169.849 151.964 170.577 152.566 171.081 153.35C171.585 154.134 171.837 155.065 171.837 156.143C171.837 157.207 171.585 158.138 171.081 158.936C170.577 159.72 169.849 160.322 168.897 160.742C167.959 161.162 166.853 161.372 165.579 161.372H162.261V165.614H159.531V150.914H165.579ZM165.453 159.062C166.643 159.062 167.546 158.81 168.162 158.306C168.778 157.802 169.086 157.081 169.086 156.143C169.086 155.205 168.778 154.484 168.162 153.98C167.546 153.476 166.643 153.224 165.453 153.224H162.261V159.062H165.453ZM175.911 150.914H178.599V161.351L186.495 150.914H189.036V165.614H186.348V155.198L178.452 165.614H175.911V150.914ZM205.862 150.914V165.614H203.174V161.519H199.541H199.247L196.517 165.614H193.64L196.79 161.078C195.768 160.7 194.977 160.105 194.417 159.293C193.871 158.467 193.598 157.473 193.598 156.311C193.598 155.191 193.85 154.225 194.354 153.413C194.858 152.601 195.572 151.985 196.496 151.565C197.42 151.131 198.505 150.914 199.751 150.914H205.862ZM199.835 153.224C198.715 153.224 197.854 153.483 197.252 154.001C196.664 154.519 196.37 155.275 196.37 156.269C196.37 157.235 196.657 157.984 197.231 158.516C197.805 159.034 198.638 159.293 199.73 159.293H203.174V153.224H199.835Z" fill="#181818"/>
<path d="M216.337 48.9087L261.911 15.023L307.485 48.9087L261.911 82.7944L216.337 48.9087Z" fill="#181818"/>
<mask id="mask0" mask-type="alpha" maskUnits="userSpaceOnUse" x="194" y="14" width="93" height="69">
<path d="M194.247 48.7678L240.667 14.0358L286.365 47.797L239.945 82.529L194.247 48.7678Z" fill="#181818"/>
</mask>
<g mask="url(#mask0)">
<path d="M289.763 54.4658L230.634 10.291" stroke="#F0E819" stroke-width="5"/>
<path d="M274.261 66.7685L215.132 22.5938" stroke="#F0E819" stroke-width="5"/>
<path d="M258.765 80.1831L199.636 36.0083" stroke="#F0E819" stroke-width="5"/>
<path d="M280.898 60.0669L221.77 15.8921" stroke="#F0E819" stroke-width="5"/>
<path d="M265.395 72.3699L206.267 28.1951" stroke="#F0E819" stroke-width="5"/>
<path d="M249.899 85.7842L190.771 41.6094" stroke="#F0E819" stroke-width="5"/>
</g>
<path d="M2.52441 220.318L15.3073 233.101L28.0902 220.318L40.8732 233.101L53.6561 220.318L66.439 233.101L79.2219 220.318" stroke="#F0E819" stroke-width="5"/>
<path d="M128.228 21.176L141.011 8.39312L153.794 21.176L166.577 8.39311" stroke="#181818" stroke-width="5"/>
<path d="M328.745 118.381L309.571 107.311L309.571 129.451L328.745 118.381Z" fill="#F0E819"/>
<path d="M328.745 150.616L309.571 139.546L309.571 161.686L328.745 150.616Z" fill="#181818"/>
<path d="M328.745 183.407L309.571 171.855L309.571 194.959L328.745 183.407Z" fill="#181818"/>
<path d="M183.716 94.6458V116.654" stroke="#D4D4DA" stroke-width="5"/>
<path d="M172.713 105.65H194.721" stroke="#D4D4DA" stroke-width="5"/>
</svg>
