<svg width="63" height="84" viewBox="0 0 63 84" fill="none" xmlns="http://www.w3.org/2000/svg">
<path d="M44.631 20.6523L41.3707 17.2181C40.2379 16.0248 38.6647 15.3491 37.0193 15.3491H4.96242C3.23083 15.3491 2.31746 17.4001 3.4759 18.6871L5.2457 20.6534C7.34049 22.9807 7.29339 26.5275 5.13754 28.7984L3.92178 30.079C1.72365 32.3944 1.72366 36.0257 3.92178 38.3411L5.03455 39.5132C7.23268 41.8286 7.23267 45.4598 5.03455 47.7752L3.92178 48.9474C1.72366 51.2628 1.72366 54.894 3.92178 57.2094L5.03455 58.3815C7.23268 60.6969 7.23267 64.3282 5.03455 66.6436L4.28503 67.4331C1.94427 69.8987 2.11777 73.8147 4.66741 76.0637L9.79475 80.5864C11.1251 81.7599 12.8514 82.3845 14.6246 82.334L47.0715 81.4096C47.3415 81.4019 47.4244 81.04 47.1846 80.9156C47.1542 80.8999 47.1272 80.8783 47.1051 80.8521L43.0605 76.0592C41.0885 73.7223 41.1893 70.2762 43.2946 68.0586L44.631 66.651C46.8291 64.3356 46.8291 60.7043 44.631 58.3889L43.5182 57.2168C41.3201 54.9014 41.3201 51.2702 43.5182 48.9548L44.631 47.7826C46.8291 45.4672 46.8291 41.836 44.631 39.5206L43.5182 38.3485C41.3201 36.0331 41.3201 32.4018 43.5182 30.0864L44.631 28.9143C46.8291 26.5989 46.8291 22.9677 44.631 20.6523Z" fill="#B4B4BE"/>
<path d="M55.2321 20.2327L52.1445 17.076C50.7335 15.6334 48.8008 14.8203 46.7829 14.8203H11.1905C9.46434 14.8203 8.84355 17.0099 10.1444 17.9536L13.9042 22.2779C15.4424 24.0471 15.3645 26.701 13.7252 28.377L12.742 29.3822C9.89087 32.2971 9.89087 36.9559 12.742 39.8708L13.491 40.6366L14.5634 39.5877L13.491 40.6366C15.2017 42.3856 15.2017 45.1808 13.491 46.9298L14.3012 47.7222L13.491 46.9298L12.742 47.6956C9.89087 50.6105 9.89087 55.2693 12.742 58.1842L13.491 58.95C15.2017 60.6989 15.2017 63.4942 13.491 65.2432L12.742 66.0089C9.89087 68.9239 9.89087 73.5826 12.742 76.4976L15.8296 79.6543C17.2406 81.0968 19.1734 81.91 21.1913 81.91H56.7836C58.5098 81.91 59.1306 79.7203 57.8297 78.7767L54.07 74.4524C52.5317 72.6831 52.6096 70.0293 54.2489 68.3532L55.2321 67.3481C58.0833 64.4331 58.0833 59.7744 55.2321 56.8594L54.4831 56.0937C52.7724 54.3447 52.7724 51.5494 54.4831 49.8005L55.2321 49.0347C58.0833 46.1198 58.0833 41.461 55.2321 38.5461L54.4831 37.7803C52.7724 36.0313 52.7724 33.2361 54.4831 31.4871L55.2321 30.7213C58.0833 27.8064 58.0833 23.1476 55.2321 20.2327ZM56.2168 81.2961C56.2156 81.2956 56.2144 81.295 56.2133 81.2944C56.2144 81.2949 56.2155 81.2955 56.2167 81.2961L56.2168 81.2961Z" fill="#F0E819" stroke="#181818" stroke-width="3"/>
<mask id="mask0" mask-type="alpha" maskUnits="userSpaceOnUse" x="10" y="16" width="48" height="65">
<path d="M54.1598 21.2815L51.0722 18.1249C49.9434 16.9708 48.3972 16.3203 46.7829 16.3203H11.1905C10.9381 16.3203 10.8573 16.6603 11.0827 16.7738C11.1105 16.7878 11.1354 16.8071 11.1558 16.8306L15.0361 21.2937C17.0871 23.6527 16.9833 27.1912 14.7975 29.4259L13.8143 30.431C11.5334 32.763 11.5334 36.49 13.8143 38.822L14.5634 39.5877C16.8443 41.9197 16.8443 45.6467 14.5634 47.9786L13.8143 48.7444C11.5334 51.0764 11.5334 54.8034 13.8143 57.1353L14.5634 57.9011C16.8443 60.2331 16.8443 63.9601 14.5634 66.292L13.8143 67.0578C11.5334 69.3898 11.5334 73.1168 13.8143 75.4487L16.902 78.6054C18.0308 79.7594 19.577 80.41 21.1913 80.41H56.7837C57.0361 80.41 57.1169 80.0699 56.8914 79.9564C56.8636 79.9424 56.8388 79.9231 56.8184 79.8996L52.938 75.4366C50.887 73.0776 50.9908 69.5391 53.1766 67.3044L54.1598 66.2992C56.4407 63.9673 56.4407 60.2403 54.1598 57.9083L53.4108 57.1425C51.1298 54.8106 51.1298 51.0836 53.4108 48.7516L54.1598 47.9858C56.4407 45.6539 56.4407 41.9269 54.1598 39.5949L53.4108 38.8291C51.1298 36.4972 51.1298 32.7702 53.4108 30.4382L54.1598 29.6725C56.4407 27.3405 56.4407 23.6135 54.1598 21.2815Z" fill="#F0E819"/>
</mask>
<g mask="url(#mask0)">
<path d="M43.2121 24.5744C52.9115 23.9682 55.3503 20.5283 55.3503 18.748L61.1766 29.9152C58.749 31.5336 51.9516 34.7705 52.9227 29.9152C53.8796 25.1304 24.7621 27.9731 11.6528 29.9152L14.566 21.1757C19.4213 23.1178 24.7621 25.7275 43.2121 24.5744Z" fill="white"/>
<path d="M41.2697 43.5101C50.7791 41.5694 55.35 39.662 55.35 38.6548L61.1763 44.9725C58.7487 45.8881 54.718 49.7528 55.35 46.9088C56.3211 42.539 13.1091 57.5845 11.167 48.3653L14.5657 40.0282C19.421 41.1269 17.4789 48.3653 41.2697 43.5101Z" fill="white"/>
<path d="M44.1829 62.931C55.4066 61.9599 55.4066 57.1046 55.4066 60.0178L61.1763 64.345C58.7723 64.9721 54.7807 67.6192 55.4066 65.6712C56.3682 62.6782 21.3631 67.7862 11.167 69.2428L13.5946 58.0757C18.4028 58.8282 20.478 64.9819 44.1829 62.931Z" fill="white"/>
</g>
<path d="M55.4462 0.607525C55.6118 -0.202509 56.7692 -0.202508 56.9347 0.607526L57.6554 4.13342C57.7163 4.43159 57.9494 4.66461 58.2475 4.72555L61.7734 5.44622C62.5835 5.61178 62.5835 6.76917 61.7734 6.93474L58.2475 7.6554C57.9494 7.71635 57.7163 7.94937 57.6554 8.24754L56.9347 11.7734C56.7692 12.5835 55.6118 12.5835 55.4462 11.7734L54.7256 8.24754C54.6646 7.94937 54.4316 7.71635 54.1334 7.6554L50.6075 6.93474C49.7975 6.76917 49.7975 5.61178 50.6075 5.44622L54.1334 4.72555C54.4316 4.66461 54.6646 4.43159 54.7256 4.13341L55.4462 0.607525Z" fill="black"/>
<path d="M44.6308 21.405C44.7412 20.865 45.5128 20.865 45.6232 21.405L46.1036 23.7556C46.1442 23.9544 46.2996 24.1097 46.4984 24.1504L48.849 24.6308C49.389 24.7412 49.389 25.5128 48.849 25.6232L46.4984 26.1036C46.2996 26.1442 46.1442 26.2996 46.1036 26.4984L45.6232 28.849C45.5128 29.389 44.7412 29.389 44.6308 28.8489L44.1504 26.4984C44.1097 26.2996 43.9544 26.1442 43.7556 26.1036L41.405 25.6232C40.865 25.5128 40.865 24.7412 41.405 24.6308L43.7556 24.1504C43.9544 24.1097 44.1097 23.9544 44.1504 23.7556L44.6308 21.405Z" fill="black"/>
</svg>
