<svg width="162" height="45" viewBox="0 0 162 45" fill="none" xmlns="http://www.w3.org/2000/svg">
<path d="M36.7588 26.0284C36.1562 25.9161 35.7569 25.764 35.7569 24.8148V17.1241C35.7569 12.0886 33.5387 9.39704 28.1486 9.39704C25.0247 9.39704 21.9414 10.194 21.9414 12.2009C21.9257 12.4188 21.957 12.6374 22.0331 12.8427C22.1093 13.048 22.2286 13.2352 22.3834 13.3924C22.5382 13.5495 22.7249 13.673 22.9316 13.7548C23.1382 13.8367 23.3601 13.875 23.5829 13.8673C23.9395 13.8704 24.2934 13.8064 24.6254 13.679L25.387 13.3747C26.1299 13.0483 26.9351 12.8803 27.7493 12.882C30.23 12.882 31.4463 13.9688 31.4463 16.2184V17.8848C30.2703 17.5786 29.0585 17.4251 27.8417 17.4284C22.8213 17.4284 20.3333 19.3592 20.3333 23.1484V23.2644C20.3333 26.7855 22.5736 29.0968 26.9397 29.0968C28.9198 29.1653 30.8569 28.521 32.3853 27.2855C32.7115 27.8288 33.1835 28.2741 33.7499 28.573C34.3163 28.8719 34.9554 29.0129 35.5979 28.9808C37.1174 28.9808 37.9603 28.4483 37.9603 27.3869C37.9837 27.0509 37.8705 26.7194 37.6454 26.4649C37.4203 26.2104 37.1015 26.0535 36.7588 26.0284ZM31.4241 24.362C30.3551 25.2294 29.0078 25.699 27.6199 25.6879C25.4018 25.6879 24.618 24.8148 24.618 23.3006V23.1847C24.618 21.7356 25.1393 20.5329 27.9453 20.5329C29.1169 20.5498 30.2833 20.6907 31.4241 20.9531V24.362ZM49.003 15.7257H39.0213C38.7619 15.7141 38.5028 15.753 38.2589 15.8401C38.015 15.9273 37.7911 16.061 37.6003 16.2335C37.4095 16.406 37.2555 16.6138 37.1472 16.8451C37.0389 17.0763 36.9785 17.3263 36.9695 17.5805C36.9695 18.6021 37.8494 19.3918 39.0509 19.3918H49.0326C49.5483 19.4164 50.0528 19.2395 50.4354 18.8999C50.8181 18.5603 51.0475 18.0857 51.0733 17.5805C51.0624 17.3259 51.0003 17.0759 50.8907 16.8449C50.7811 16.6138 50.626 16.4062 50.4344 16.2339C50.2428 16.0616 50.0184 15.9281 49.7741 15.8409C49.5297 15.7537 49.2702 15.7146 49.0104 15.7257H49.003ZM65.6393 25.0068H56.3378V3.75302C56.3378 2.6916 55.3359 1.78233 54.1196 1.78233C53.8418 1.76867 53.564 1.80885 53.3021 1.90056C53.0402 1.99226 52.7993 2.13369 52.5933 2.31675C52.3872 2.49981 52.2201 2.7209 52.1014 2.96736C51.9826 3.21381 51.9147 3.4808 51.9014 3.75302V26.6732C51.9014 27.8832 53.0105 28.8468 54.3045 28.8468H65.5986C65.868 28.858 66.1369 28.8166 66.3898 28.7251C66.6428 28.6337 66.8746 28.4939 67.072 28.314C67.2694 28.134 67.4284 27.9175 67.5397 27.6769C67.6511 27.4363 67.7126 27.1764 67.7206 26.9123C67.7502 25.84 66.7484 24.996 65.6282 24.996L65.6393 25.0068ZM83.4548 26.0284C82.8559 25.9161 82.453 25.764 82.453 24.8148V17.1241C82.453 12.0886 80.2533 9.39704 74.8447 9.39704C71.7244 9.39704 68.6375 10.194 68.6375 12.2009C68.6218 12.4191 68.6531 12.6381 68.7295 12.8436C68.8058 13.0491 68.9255 13.2366 69.0807 13.3938C69.2359 13.551 69.4231 13.6744 69.6302 13.756C69.8373 13.8376 70.0596 13.8755 70.2826 13.8673C70.638 13.8701 70.9906 13.8062 71.3215 13.679L72.083 13.3747C72.826 13.0483 73.6312 12.8803 74.4454 12.882C76.9297 12.882 78.1423 13.9688 78.1423 16.2184V17.8848C76.9664 17.5788 75.7545 17.4254 74.5378 17.4284C69.5322 17.4284 67.0478 19.3592 67.0478 23.1484V23.2644C67.0478 26.7855 69.2919 29.0968 73.6542 29.0968C75.6352 29.1638 77.573 28.5197 79.1035 27.2855C79.4265 27.8243 79.893 28.2667 80.4532 28.5654C81.0133 28.8641 81.6458 29.0077 82.2829 28.9808C83.806 28.9808 84.6453 28.4483 84.6453 27.3869C84.6697 27.0506 84.5568 26.7187 84.3315 26.4639C84.1062 26.2092 83.7869 26.0525 83.4437 26.0284H83.4548ZM78.1312 24.362C77.0563 25.2315 75.7024 25.7011 74.3086 25.6879C72.0904 25.6879 71.303 24.8148 71.303 23.3006V23.1847C71.303 21.7356 71.8243 20.5329 74.6302 20.5329C75.8042 20.5487 76.973 20.6884 78.1165 20.9495L78.1312 24.362ZM92.0909 2.08662H87.5658C86.2054 2.08662 85.0297 3.14805 85.0297 4.34713V26.5573C85.0297 27.8071 86.1906 28.8323 87.551 28.8323H92.0909C100.742 28.8323 103.666 23.9816 103.666 18.718V11.8966C103.666 6.74529 100.701 2.08662 92.0909 2.08662ZM99.2593 18.718C99.2593 22.1631 97.6178 24.967 92.7748 24.967H89.4476V5.98817H92.7748C97.5365 5.98817 99.2593 8.60369 99.2593 11.8966V18.718ZM112.073 9.36081C106.786 9.36081 103.984 12.3531 103.984 16.2438V22.2392C103.984 26.1045 106.786 29.1221 112.073 29.1221C117.359 29.1221 120.151 26.1045 120.151 22.2392V16.2546C120.151 12.3531 117.359 9.36081 112.073 9.36081ZM115.836 22.2392C115.836 24.2859 114.554 25.5357 112.073 25.5357C109.592 25.5357 108.32 24.2715 108.32 22.2392V16.2184C108.32 14.2079 109.6 12.9581 112.084 12.9581C114.568 12.9581 115.847 14.2079 115.847 16.2184L115.836 22.2392ZM128.654 9.36081C123.367 9.36081 120.565 12.3531 120.565 16.2438V22.2392C120.565 26.1045 123.367 29.1221 128.654 29.1221C133.94 29.1221 136.743 26.0936 136.743 22.2392V16.2546C136.739 12.3531 133.933 9.36081 128.654 9.36081ZM132.417 22.2392C132.417 24.2859 131.134 25.5357 128.654 25.5357C126.173 25.5357 124.883 24.2715 124.883 22.2392V16.2184C124.883 14.2079 126.166 12.9581 128.65 12.9581C131.134 12.9581 132.413 14.2079 132.413 16.2184L132.417 22.2392ZM146.429 9.56006C145.027 9.56006 142.987 10.165 141.183 11.1902C140.702 10.5454 140.074 10.1034 139.334 10.1034C138.225 10.1034 137.253 10.828 137.253 11.8858C137.25 12.2633 137.393 12.628 137.652 12.9073C138.055 13.4761 138.214 14.0448 138.214 15.1063V27.2021C138.214 28.2889 139.134 29.133 140.377 29.133C141.619 29.133 142.539 28.2998 142.539 27.2021V15.0809C142.529 14.7886 142.502 14.4971 142.458 14.2079C144.14 13.2624 145.22 13.2986 146.894 13.3384C147.173 13.3731 147.457 13.3488 147.726 13.2672C147.994 13.1856 148.242 13.0485 148.452 12.8653C148.662 12.682 148.83 12.4568 148.944 12.2047C149.058 11.9526 149.115 11.6796 149.113 11.404C149.109 10.3462 148.469 9.54919 146.425 9.54919L146.429 9.56006Z" fill="white"/>
<path fill-rule="evenodd" clip-rule="evenodd" d="M152.684 15.3961C152.684 13.7695 154.532 13.5848 155.527 13.5848C157.649 13.5848 158.247 14.418 159.53 14.418C160.569 14.418 161.29 13.8891 161.29 12.8675C161.29 10.6686 157.889 10.0998 155.527 10.0998C150.839 10.0998 148.44 12.3748 148.44 15.7837C148.44 22.4891 157.767 20.5945 157.767 24.1555C157.767 25.5176 156.366 26.3508 154.565 26.3508C152.883 26.3508 151.16 25.6263 150.44 25.4814C148.68 25.0648 148.199 26.6189 148.199 27.2927C148.199 29.2996 152.443 29.7923 154.724 29.7923C159.49 29.7923 162.011 27.5934 162.011 24.0722C162 17.2907 152.684 19.1092 152.684 15.3961Z" fill="#F0E819"/>
<path d="M107.13 3.16252C106.63 3.20022 106.148 3.36503 105.732 3.64071C105.621 3.45958 105.474 3.32554 105.344 3.32554C105.305 3.32553 105.266 3.33326 105.229 3.34827C105.193 3.36329 105.16 3.38528 105.132 3.41297C105.105 3.44065 105.083 3.47346 105.069 3.50946C105.054 3.54546 105.047 3.58393 105.048 3.62259C105.048 3.68424 105.069 3.74419 105.108 3.79286C105.249 4.02653 105.311 4.29782 105.285 4.56809V8.10738C105.285 8.19097 105.319 8.27113 105.379 8.33024C105.44 8.38934 105.521 8.42255 105.607 8.42255C105.692 8.42255 105.774 8.38934 105.834 8.33024C105.894 8.27113 105.928 8.19097 105.928 8.10738V4.56809C105.936 4.46317 105.936 4.35785 105.928 4.25293C106.115 4.09767 106.333 3.98158 106.568 3.91181C106.802 3.84203 107.049 3.82004 107.292 3.8472C107.338 3.84602 107.384 3.83545 107.425 3.81615C107.467 3.79684 107.503 3.76924 107.533 3.73512C107.563 3.70099 107.586 3.6611 107.599 3.61802C107.612 3.57493 107.616 3.52959 107.61 3.48493C107.581 3.3038 107.477 3.16252 107.13 3.16252ZM109.518 6.22725C110.679 6.22725 111.163 5.66574 111.163 4.74922C111.163 3.76388 110.638 3.12267 109.559 3.12267C108.387 3.12267 107.755 3.8472 107.755 4.82168V6.77426C107.743 6.99942 107.781 7.22434 107.866 7.43404C107.95 7.64373 108.079 7.83339 108.244 7.99038C108.409 8.14736 108.607 8.26807 108.823 8.34446C109.04 8.42086 109.27 8.45118 109.5 8.43341C110.025 8.43341 111.074 8.29213 111.074 7.83568C111.075 7.76196 111.047 7.69077 110.995 7.63731C110.943 7.58384 110.872 7.55233 110.797 7.5495C110.759 7.55168 110.721 7.56154 110.686 7.57848C110.354 7.76485 109.979 7.86695 109.596 7.87553C108.805 7.87553 108.398 7.45893 108.398 6.83584V6.11132C108.766 6.18663 109.142 6.22547 109.518 6.22725ZM108.409 4.74198C108.401 4.59738 108.425 4.4528 108.48 4.31839C108.535 4.18398 108.62 4.063 108.727 3.96393C108.835 3.86486 108.964 3.79011 109.104 3.74491C109.245 3.69971 109.393 3.68516 109.54 3.70229C110.172 3.70229 110.538 4.00659 110.538 4.74922C110.538 5.22741 110.402 5.68748 109.57 5.68748C109.181 5.68317 108.794 5.65534 108.409 5.60416V4.74198ZM115.296 7.8538C115.27 7.85509 115.245 7.85509 115.219 7.8538C115.038 7.8538 114.949 7.71976 114.949 7.45531V5.16945C114.949 3.83633 114.465 3.12267 113.245 3.12267C112.579 3.12267 111.847 3.29656 111.888 3.72403C111.888 3.84357 111.958 3.98848 112.106 3.98848C112.192 3.98541 112.274 3.95629 112.343 3.90516C112.579 3.74867 112.86 3.67 113.145 3.68056C113.928 3.68056 114.306 4.06817 114.306 4.89413V5.59329C113.946 5.48374 113.573 5.4228 113.196 5.41216C112.039 5.41216 111.474 5.91933 111.474 6.89743V6.93728C111.474 7.82482 111.958 8.43341 112.952 8.43341C113.218 8.43245 113.481 8.37793 113.725 8.27324C113.969 8.16854 114.188 8.01591 114.368 7.82482C114.425 7.97886 114.524 8.11454 114.655 8.21684C114.785 8.31914 114.942 8.38406 115.108 8.40443C115.285 8.40443 115.478 8.33198 115.478 8.12911C115.503 7.99508 115.433 7.8538 115.285 7.8538H115.296ZM114.306 7.36474C113.985 7.6798 113.551 7.85925 113.097 7.86466C112.357 7.86466 112.113 7.47705 112.113 6.94815V6.9083C112.113 6.39026 112.283 5.95193 113.196 5.95193C113.574 5.96033 113.948 6.02507 114.306 6.14393V7.36474ZM116.712 7.44806V1.23892C116.714 1.19657 116.707 1.15436 116.692 1.11468C116.676 1.07501 116.653 1.03866 116.624 1.0077C116.594 0.976752 116.559 0.951806 116.519 0.934293C116.48 0.91678 116.438 0.907043 116.394 0.90564C116.308 0.910321 116.227 0.947721 116.168 1.00992C116.11 1.07213 116.078 1.15425 116.08 1.23892V7.44806C116.08 8.32111 116.424 8.43341 116.642 8.43341C116.681 8.43451 116.72 8.42758 116.756 8.41307C116.793 8.39857 116.825 8.3768 116.852 8.34918C116.88 8.32155 116.901 8.28867 116.914 8.25265C116.927 8.21663 116.933 8.17825 116.93 8.13998C116.928 8.08928 116.914 8.03972 116.89 7.99508C116.758 7.84296 116.691 7.64729 116.701 7.44806H116.712ZM120.953 7.44806V1.23892C120.956 1.154 120.924 1.07135 120.866 1.00894C120.807 0.946532 120.725 0.909407 120.638 0.90564C120.551 0.909407 120.47 0.946409 120.41 1.00871C120.351 1.07101 120.318 1.15366 120.32 1.23892V7.44806C120.32 8.32111 120.668 8.43341 120.886 8.43341C120.925 8.434 120.963 8.42669 120.999 8.41196C121.035 8.39723 121.067 8.37539 121.094 8.34782C121.121 8.32025 121.141 8.28755 121.155 8.25177C121.168 8.216 121.173 8.17794 121.171 8.13998C121.168 8.08979 121.156 8.04057 121.134 7.99508C120.999 7.84427 120.93 7.64799 120.942 7.44806H120.953ZM123.6 3.10094C123.354 3.08163 123.107 3.1145 122.875 3.1973C122.643 3.2801 122.432 3.41088 122.257 3.58073C122.082 3.75059 121.946 3.95552 121.858 4.18154C121.771 4.40757 121.734 4.64939 121.751 4.89051V6.64385C121.808 7.08111 122.026 7.48307 122.363 7.77442C122.701 8.06576 123.135 8.22649 123.585 8.22649C124.035 8.22649 124.469 8.06576 124.807 7.77442C125.144 7.48307 125.362 7.08111 125.419 6.64385V4.90137C125.436 4.66175 125.4 4.42134 125.314 4.1964C125.228 3.97146 125.094 3.76725 124.92 3.59757C124.747 3.42789 124.538 3.29671 124.308 3.21291C124.079 3.1291 123.833 3.09462 123.589 3.11181L123.6 3.10094ZM124.79 6.64385C124.79 6.95322 124.665 7.24991 124.441 7.46867C124.218 7.68743 123.915 7.81033 123.6 7.81033C123.284 7.81033 122.981 7.68743 122.758 7.46867C122.535 7.24991 122.409 6.95322 122.409 6.64385V4.89413C122.409 4.58476 122.535 4.28806 122.758 4.0693C122.981 3.85055 123.284 3.72765 123.6 3.72765C123.915 3.72765 124.218 3.85055 124.441 4.0693C124.665 4.28806 124.79 4.58476 124.79 4.89413V6.64385ZM131.319 3.15165C131.25 3.15414 131.183 3.17839 131.129 3.2208C131.075 3.26322 131.037 3.32154 131.019 3.38712L130.01 7.48791C129.496 5.50273 129.226 4.46666 129.001 3.46682C129.001 3.37074 128.962 3.2786 128.893 3.21066C128.823 3.14273 128.729 3.10456 128.631 3.10456C128.533 3.10456 128.439 3.14273 128.37 3.21066C128.3 3.2786 128.262 3.37074 128.262 3.46682C127.955 4.72024 127.648 6.04249 127.26 7.48791L126.225 3.38712C126.202 3.32526 126.162 3.27066 126.11 3.22917C126.058 3.18769 125.995 3.16089 125.929 3.15165C125.843 3.15163 125.76 3.18461 125.699 3.24351C125.637 3.30242 125.602 3.38257 125.6 3.46682V3.48856L126.805 8.02768C126.871 8.2704 127.023 8.43341 127.249 8.43341C127.341 8.43934 127.432 8.41314 127.507 8.35945C127.581 8.30576 127.634 8.22802 127.655 8.13998C127.992 6.95901 128.361 5.37231 128.646 4.18047L129.629 8.13998C129.655 8.2236 129.707 8.29705 129.778 8.34978C129.85 8.4025 129.936 8.43179 130.025 8.43341C130.284 8.43341 130.395 8.29213 130.461 8.02768L131.611 3.51029V3.48856C131.616 3.4063 131.589 3.32526 131.534 3.26245C131.48 3.19963 131.403 3.15993 131.319 3.15165ZM134.569 5.07164H132.04C131.999 5.07303 131.959 5.08232 131.922 5.09897C131.885 5.11561 131.852 5.13929 131.825 5.16861C131.797 5.19793 131.776 5.23232 131.762 5.26978C131.748 5.30724 131.742 5.34701 131.744 5.3868C131.744 5.42467 131.751 5.46225 131.766 5.49724C131.78 5.53224 131.802 5.56392 131.83 5.59036C131.858 5.6168 131.891 5.63744 131.927 5.65102C131.963 5.6646 132.001 5.67084 132.04 5.66937H134.569C134.606 5.66992 134.643 5.6629 134.678 5.64875C134.713 5.6346 134.744 5.61363 134.77 5.58713C134.796 5.56063 134.816 5.52917 134.829 5.4947C134.842 5.46024 134.848 5.42351 134.846 5.3868C134.849 5.34825 134.844 5.30949 134.832 5.27275C134.819 5.23601 134.8 5.20202 134.774 5.17273C134.748 5.14344 134.717 5.11943 134.682 5.10208C134.646 5.08473 134.608 5.07439 134.569 5.07164ZM138.095 3.98485C138.131 3.98392 138.167 3.97605 138.2 3.9617C138.232 3.94736 138.262 3.92681 138.287 3.90124C138.311 3.87567 138.331 3.84558 138.344 3.81269C138.356 3.7798 138.363 3.74474 138.362 3.70954C138.362 3.2712 137.471 3.14803 137.027 3.14803C135.796 3.14803 135.26 3.96312 135.26 5.00281V6.59313C135.26 7.6292 135.796 8.43341 137.027 8.43341C137.471 8.43341 138.362 8.31387 138.362 7.8864C138.365 7.81397 138.338 7.74329 138.289 7.68971C138.239 7.63613 138.169 7.60397 138.095 7.60021C138.045 7.60377 137.995 7.6135 137.948 7.62919C137.691 7.78665 137.396 7.87189 137.094 7.87553C136.232 7.87553 135.896 7.39735 135.896 6.59313V5.00643C135.896 4.19134 136.232 3.71316 137.094 3.71316C137.396 3.72009 137.692 3.80775 137.948 3.96674C137.996 3.97886 138.046 3.98495 138.095 3.98485ZM140.443 3.10818C140.197 3.08949 139.95 3.12278 139.719 3.2058C139.487 3.28882 139.277 3.41962 139.102 3.58934C138.926 3.75907 138.79 3.96374 138.703 4.18949C138.615 4.41524 138.578 4.65678 138.594 4.89775V6.65109C138.651 7.08835 138.869 7.49031 139.206 7.78166C139.544 8.07301 139.978 8.23374 140.428 8.23374C140.878 8.23374 141.312 8.07301 141.65 7.78166C141.988 7.49031 142.205 7.08835 142.262 6.65109V4.90137C142.279 4.66273 142.243 4.42331 142.158 4.19919C142.073 3.97506 141.939 3.77142 141.767 3.60192C141.595 3.43243 141.387 3.30101 141.159 3.21647C140.931 3.13194 140.687 3.09625 140.443 3.11181V3.10818ZM141.633 6.65109C141.642 6.8095 141.618 6.96805 141.563 7.11704C141.507 7.26603 141.421 7.40232 141.31 7.51759C141.198 7.63286 141.064 7.72468 140.916 7.78743C140.767 7.85018 140.607 7.88255 140.445 7.88255C140.283 7.88255 140.123 7.85018 139.974 7.78743C139.825 7.72468 139.691 7.63286 139.58 7.51759C139.469 7.40232 139.383 7.26603 139.327 7.11704C139.271 6.96805 139.247 6.8095 139.256 6.65109V4.89413C139.247 4.73572 139.271 4.57717 139.327 4.42818C139.383 4.27919 139.469 4.1429 139.58 4.02763C139.691 3.91236 139.825 3.82054 139.974 3.75779C140.123 3.69503 140.283 3.66267 140.445 3.66267C140.607 3.66267 140.767 3.69503 140.916 3.75779C141.064 3.82054 141.198 3.91236 141.31 4.02763C141.421 4.1429 141.507 4.27919 141.563 4.42818C141.618 4.57717 141.642 4.73572 141.633 4.89413V6.65109ZM143.951 5.26726C143.582 5.05352 143.426 4.86877 143.426 4.50289C143.426 3.96312 143.733 3.67693 144.406 3.67693C144.691 3.67159 144.973 3.74301 145.219 3.88342C145.266 3.90594 145.316 3.91948 145.367 3.92327C145.407 3.92385 145.447 3.91636 145.483 3.90126C145.52 3.88616 145.553 3.86379 145.58 3.83555C145.608 3.80731 145.629 3.77381 145.643 3.73716C145.656 3.70051 145.662 3.6615 145.659 3.62259C145.659 3.2386 144.887 3.11543 144.38 3.11543C143.352 3.11543 142.805 3.68418 142.805 4.56447C142.805 5.78529 144.007 5.88672 144.779 6.28521C144.915 6.35557 145.026 6.46373 145.098 6.59595C145.17 6.72818 145.201 6.8785 145.186 7.02784C145.186 7.62919 144.779 7.88278 144.173 7.88278C143.803 7.87309 143.439 7.78667 143.105 7.62919C143.085 7.62485 143.065 7.62485 143.046 7.62919C142.963 7.62919 142.884 7.66125 142.826 7.71832C142.768 7.77539 142.735 7.85279 142.735 7.93349C142.735 8.35009 143.667 8.45153 144.173 8.45153C145.253 8.45153 145.807 7.90451 145.807 7.00248C145.804 5.76718 144.735 5.66574 143.951 5.27088V5.26726ZM148.144 7.77048H147.944C147.142 7.77048 147.024 7.35388 147.024 6.22362V4.05006H148.173C148.212 4.04959 148.25 4.0416 148.286 4.02656C148.321 4.01151 148.353 3.98971 148.38 3.96241C148.407 3.93511 148.428 3.90286 148.442 3.86754C148.456 3.83221 148.463 3.79451 148.462 3.75663C148.465 3.71721 148.459 3.67759 148.446 3.64017C148.433 3.60274 148.413 3.56828 148.386 3.53884C148.359 3.50941 148.326 3.48561 148.29 3.46887C148.253 3.45214 148.214 3.44282 148.173 3.44146H147.024V1.91997C147.024 1.83734 146.99 1.7581 146.93 1.69967C146.871 1.64125 146.79 1.60843 146.706 1.60843C146.621 1.60843 146.54 1.64125 146.481 1.69967C146.421 1.7581 146.388 1.83734 146.388 1.91997V6.30694C146.388 7.70165 146.728 8.39356 148.096 8.39356C148.332 8.39356 148.591 8.36458 148.591 8.0784C148.591 7.79221 148.332 7.7741 148.144 7.7741V7.77048Z" fill="white"/>
<path fill-rule="evenodd" clip-rule="evenodd" d="M0.0444336 7.12204L0.118372 37.8671L14.7731 37.7838V0L0.0444336 7.12204Z" fill="#F0E819"/>
<path fill-rule="evenodd" clip-rule="evenodd" d="M14.773 30.5168L0 37.7838L14.773 45L29.6532 37.7838L14.773 30.5168Z" fill="white"/>
</svg>
