<svg width="63" height="47" viewBox="0 0 63 47" fill="none" xmlns="http://www.w3.org/2000/svg">
<rect x="1" y="1" width="45" height="32" fill="#F0E819" stroke="#181818" stroke-width="2"/>
<rect x="1" y="1" width="45" height="28" fill="#F0E819" stroke="#181818" stroke-width="2"/>
<rect x="17" y="21" width="45" height="25" fill="#F0E819" stroke="#181818" stroke-width="2"/>
<rect x="9" y="9" width="45" height="32" fill="white" stroke="#181818" stroke-width="2"/>
<rect x="9" y="9" width="45" height="28" fill="white" stroke="#181818" stroke-width="2"/>
<rect x="17" y="17" width="45" height="25" fill="#F0E819" stroke="#181818" stroke-width="2"/>
<path d="M23.1238 16.5001C23.7894 18.1274 23.6648 20.0449 22.6216 21.6218C21.4589 23.3792 19.4606 24.2519 17.4999 24.0622" stroke="#181818" stroke-width="2"/>
<path d="M17.4998 35.6141C19.4605 35.4243 21.4587 36.297 22.6214 38.0544C23.4217 39.2641 23.6814 40.6742 23.4585 42" stroke="#181818" stroke-width="2"/>
<path d="M56.0076 16.5001C55.3419 18.1274 55.4665 20.0449 56.5098 21.6218C57.6724 23.3792 59.6707 24.2519 61.6314 24.0622" stroke="#181818" stroke-width="2"/>
<path d="M61.6314 35.614C59.6707 35.4243 57.6725 36.297 56.5098 38.0544C55.8094 39.113 55.5231 40.3251 55.6119 41.4999" stroke="#181818" stroke-width="2"/>
<path d="M38 24V37.5" stroke="#181818" stroke-width="2"/>
<path d="M35 24.5H42C43.6569 24.5 45 25.8431 45 27.5V27.5C45 29.1569 43.6569 30.5 42 30.5H35" stroke="#181818" stroke-width="2"/>
<path d="M41 33.5H35" stroke="#181818" stroke-width="2"/>
</svg>
