<svg width="305" height="345" viewBox="0 0 305 345" fill="none" xmlns="http://www.w3.org/2000/svg">
<rect x="242.157" y="7.94092" width="3.9406" height="3.9406" transform="rotate(-90 242.157 7.94092)" fill="#85858C"/>
<rect x="224" y="7.94092" width="3.9406" height="3.9406" transform="rotate(-90 224 7.94092)" fill="#85858C"/>
<rect x="206" y="7.94092" width="3.9406" height="3.9406" transform="rotate(-90 206 7.94092)" fill="#85858C"/>
<rect x="278.471" y="7.94092" width="3.9406" height="3.9406" transform="rotate(-90 278.471 7.94092)" fill="#85858C"/>
<rect x="260.314" y="7.94092" width="3.9406" height="3.9406" transform="rotate(-90 260.314 7.94092)" fill="#85858C"/>
<rect x="296.628" y="7.94092" width="3.9406" height="3.9406" transform="rotate(-90 296.628 7.94092)" fill="#85858C"/>
<rect x="242.157" y="26.0981" width="3.9406" height="3.9406" transform="rotate(-90 242.157 26.0981)" fill="#85858C"/>
<rect x="224" y="26.0981" width="3.9406" height="3.9406" transform="rotate(-90 224 26.0981)" fill="#85858C"/>
<rect x="206" y="26.0981" width="3.9406" height="3.9406" transform="rotate(-90 206 26.0981)" fill="#85858C"/>
<rect x="278.471" y="26.0981" width="3.9406" height="3.9406" transform="rotate(-90 278.471 26.0981)" fill="#85858C"/>
<rect x="260.314" y="26.0981" width="3.9406" height="3.9406" transform="rotate(-90 260.314 26.0981)" fill="#85858C"/>
<rect x="296.628" y="26.0981" width="3.9406" height="3.9406" transform="rotate(-90 296.628 26.0981)" fill="#85858C"/>
<rect x="242.157" y="43.9409" width="3.9406" height="3.9406" transform="rotate(-90 242.157 43.9409)" fill="#85858C"/>
<rect x="224" y="43.9409" width="3.9406" height="3.9406" transform="rotate(-90 224 43.9409)" fill="#85858C"/>
<rect x="206" y="43.9409" width="3.9406" height="3.9406" transform="rotate(-90 206 43.9409)" fill="#85858C"/>
<rect x="278.471" y="43.9409" width="3.9406" height="3.9406" transform="rotate(-90 278.471 43.9409)" fill="#85858C"/>
<rect x="260.314" y="43.9409" width="3.9406" height="3.9406" transform="rotate(-90 260.314 43.9409)" fill="#85858C"/>
<rect x="296.628" y="43.9409" width="3.9406" height="3.9406" transform="rotate(-90 296.628 43.9409)" fill="#85858C"/>
<rect x="242.157" y="61.9409" width="3.9406" height="3.9406" transform="rotate(-90 242.157 61.9409)" fill="#85858C"/>
<rect x="224" y="61.9409" width="3.9406" height="3.9406" transform="rotate(-90 224 61.9409)" fill="#85858C"/>
<rect x="206" y="61.9409" width="3.9406" height="3.9406" transform="rotate(-90 206 61.9409)" fill="#85858C"/>
<rect x="278.471" y="61.9409" width="3.9406" height="3.9406" transform="rotate(-90 278.471 61.9409)" fill="#85858C"/>
<rect x="260.314" y="61.9409" width="3.9406" height="3.9406" transform="rotate(-90 260.314 61.9409)" fill="#85858C"/>
<rect x="296.628" y="61.9409" width="3.9406" height="3.9406" transform="rotate(-90 296.628 61.9409)" fill="#85858C"/>
<path d="M183.523 289.209L183.542 289.203L183.56 289.197C195.606 285.077 206.151 279.27 215.17 271.764C224.445 264.255 231.678 255.307 236.846 244.928C242.295 234.492 245 222.783 245 209.847C245 201.796 243.709 194.346 241.101 187.521C238.771 180.768 235.532 174.647 231.38 169.168C227.261 163.48 222.617 158.551 217.445 154.39C213.337 150.884 209.056 147.864 204.603 145.335C208.285 143.303 211.809 140.893 215.176 138.107C219.586 134.458 223.36 130.408 226.49 125.955C229.87 121.252 232.479 116.275 234.307 111.025L234.312 111.011L234.317 110.997C236.144 105.489 237.064 99.961 237.064 94.42C237.064 81.9603 234.22 70.9627 228.466 61.4976C222.791 51.9108 215.559 43.8647 206.776 37.376C198.011 30.9009 188.098 26.1174 177.055 23.0179C166.161 19.6349 155.561 19.5 145.5 19.5C134.895 19.5 124.094 21.7665 113.406 25.0902L113.393 25.0944C108.206 26.7468 100.571 29.3051 93.1141 32.2508C85.7079 35.1763 78.2931 38.5539 73.6653 41.8751L73.6541 41.8831L73.643 41.8913C71.3734 43.568 69.8161 45.137 68.7006 46.7445C67.579 48.3609 66.9687 49.9244 66.4941 51.4799C66.2947 52.1333 66.119 52.7788 65.9412 53.4325C65.2795 55.8642 64.5872 58.4085 62.5288 61.8868L62.5246 61.894L62.5204 61.9012C57.027 71.363 54.314 82.3515 54.314 94.7997C54.314 106.117 57.7288 116.521 64.5156 125.963C70.4413 134.206 77.4979 140.668 85.6857 145.312C81.635 147.611 77.5995 150.38 73.5784 153.612L73.5588 153.628L73.5396 153.644C68.6339 157.795 64.125 162.586 60.011 168.011C55.862 173.483 52.4985 179.595 49.916 186.338C47.296 192.924 46 200.135 46 207.949C46 220.631 48.5783 232.324 53.759 242.994C58.918 253.62 66.0152 262.824 75.0379 270.595C83.9944 278.308 94.4592 284.345 106.41 288.718C107.572 289.515 108.504 290.188 109.361 290.807C109.946 291.23 110.497 291.628 111.061 292.022C112.427 292.976 113.705 293.783 115.207 294.402C118.21 295.64 121.819 296 128.494 296C135.275 296 146.001 295.267 156.498 294.063C166.958 292.863 177.398 291.173 183.523 289.209ZM185.657 190.614L185.675 190.649L185.693 190.684C188.288 195.424 189.605 200.784 189.605 206.809C189.605 212.325 188.416 217.455 186.044 222.227C183.652 226.788 180.425 230.751 176.347 234.125C172.25 237.515 167.539 240.189 162.197 242.141C156.88 244.084 151.318 245.057 145.5 245.057C139.927 245.057 134.476 244.207 129.142 242.507C123.816 240.556 119.118 237.887 115.031 234.505C110.947 231.126 107.585 227.151 104.938 222.57C102.584 217.819 101.395 212.577 101.395 206.809C101.395 201.019 102.594 195.901 104.946 191.411L104.956 191.392L104.965 191.374C107.37 186.54 110.483 182.454 114.298 179.095C118.37 175.731 123.046 173.199 128.347 171.504L128.386 171.492L128.425 171.478C133.742 169.535 139.304 168.562 145.122 168.562C150.709 168.562 156.172 169.416 161.519 171.125C166.83 172.823 171.514 175.361 175.591 178.734L175.64 178.775L175.692 178.812C179.963 181.912 183.28 185.838 185.657 190.614ZM169.633 118.249L169.607 118.269L169.581 118.29C166.258 120.912 162.45 122.952 158.14 124.402C153.78 125.614 149.569 126.213 145.5 126.213C141.176 126.213 136.843 125.613 132.499 124.406C128.422 122.955 124.584 121.027 120.981 118.621C117.677 116.001 114.967 112.918 112.842 109.366C110.774 105.661 109.709 101.331 109.709 96.3185C109.709 87.5624 113.082 80.6891 119.881 75.5072L119.898 75.4941L119.915 75.4807C126.829 69.971 135.195 67.1836 145.122 67.1836C155.335 67.1836 163.835 69.8634 170.741 75.1275L170.754 75.1373L170.767 75.147C177.815 80.3399 181.291 87.2103 181.291 95.9388C181.291 100.952 180.226 105.281 178.158 108.986C176.037 112.531 173.204 115.619 169.633 118.249Z" fill="#F4F4F6" stroke="#181818" stroke-width="4"/>
<path d="M223 214.847C223 227.503 220.355 238.894 215.064 249.019C210.025 259.145 202.971 267.878 193.901 275.218C185.083 282.559 174.754 288.255 162.913 292.305C151.072 296.102 138.475 298 125.122 298C111.769 298 99.1725 295.975 87.3314 291.925C75.4903 287.622 65.1609 281.673 56.343 274.079C47.5252 266.485 40.5969 257.499 35.5581 247.121C30.5194 236.743 28 225.352 28 212.949C28 205.355 29.2597 198.394 31.7791 192.065C34.2984 185.484 37.5736 179.535 41.6047 174.22C45.6357 168.904 50.0446 164.221 54.8314 160.171C59.8702 156.121 64.9089 152.83 69.9477 150.299C60.626 145.743 52.6899 138.908 46.1395 129.796C39.5891 120.683 36.314 110.684 36.314 99.7997C36.314 87.6495 38.9593 77.0181 44.25 67.9054C49.7926 58.5396 56.8469 50.6926 65.4128 44.3644C74.2306 38.0362 83.8043 33.2267 94.1337 29.936C104.715 26.6453 115.171 25 125.5 25C135.578 25 145.907 26.6453 156.488 29.936C167.322 32.9736 177.021 37.6565 185.587 43.9847C194.153 50.3129 201.207 58.1599 206.75 67.5257C212.293 76.6384 215.064 87.2698 215.064 99.42C215.064 104.736 214.182 110.051 212.419 115.367C210.655 120.43 208.136 125.239 204.86 129.796C201.837 134.099 198.184 138.022 193.901 141.566C189.618 145.11 185.083 148.021 180.297 150.299C185.839 153.083 191.13 156.627 196.169 160.93C201.207 164.981 205.742 169.79 209.773 175.359C213.804 180.675 216.953 186.623 219.221 193.204C221.74 199.786 223 207 223 214.847ZM171.605 211.809C171.605 205.481 170.219 199.786 167.448 194.723C164.928 189.661 161.401 185.484 156.866 182.193C152.583 178.65 147.671 175.992 142.128 174.22C136.585 172.448 130.917 171.562 125.122 171.562C119.076 171.562 113.281 172.574 107.738 174.599C102.196 176.371 97.283 179.029 93 182.573C88.969 186.117 85.6938 190.42 83.1744 195.483C80.655 200.292 79.3954 205.734 79.3954 211.809C79.3954 217.885 80.655 223.453 83.1744 228.516C85.9457 233.325 89.4729 237.502 93.7558 241.046C98.0388 244.59 102.952 247.374 108.494 249.399C114.037 251.171 119.705 252.057 125.5 252.057C131.547 252.057 137.341 251.045 142.884 249.019C148.426 246.994 153.339 244.21 157.622 240.666C161.905 237.122 165.306 232.946 167.826 228.136C170.345 223.074 171.605 217.631 171.605 211.809ZM87.7093 101.319C87.7093 106.634 88.843 111.317 91.1105 115.367C93.3779 119.164 96.2752 122.455 99.8023 125.239C103.581 127.771 107.612 129.796 111.895 131.314C116.43 132.58 120.965 133.213 125.5 133.213C129.783 133.213 134.192 132.58 138.727 131.314C143.262 129.796 147.293 127.644 150.82 124.86C154.599 122.075 157.622 118.784 159.89 114.987C162.157 110.937 163.291 106.255 163.291 100.939C163.291 91.573 159.512 84.1057 151.953 78.5369C144.647 72.968 135.703 70.1836 125.122 70.1836C114.793 70.1836 105.975 73.0946 98.6686 78.9166C91.3624 84.4854 87.7093 91.9527 87.7093 101.319Z" fill="#181818"/>
<path d="M206 144.5L176.5 151.5" stroke="#181818" stroke-width="4"/>
<path d="M35.343 274.579C26.5252 266.985 19.5969 257.999 14.5581 247.621C9.51938 237.243 7 225.852 7 213.448C7 205.854 8.25969 198.893 10.7791 192.565C13.2984 185.984 16.5736 180.035 20.6047 174.72C24.6357 169.404 29.0446 164.721 33.8314 160.671" stroke="#181818" stroke-width="4"/>
<path d="M242.634 144.634L273.634 121.584L304.634 144.634L273.634 167.683L242.634 144.634Z" fill="#D4D4DA"/>
<path d="M242.634 144.634L273.634 121.584L273.634 144.634L273.634 167.683L242.634 144.634Z" fill="#181818"/>
<path d="M102.073 338.69V344.234H99.553V341H87.079V326.3H89.767V338.69H97.18V326.3H99.889V338.69H102.073ZM115.723 333.356C116.661 333.608 117.375 334.042 117.865 334.658C118.355 335.26 118.6 336.016 118.6 336.926C118.6 338.214 118.124 339.215 117.172 339.929C116.22 340.643 114.841 341 113.035 341H106.063V326.3H112.636C114.288 326.3 115.576 326.629 116.5 327.287C117.424 327.945 117.886 328.876 117.886 330.08C117.886 330.85 117.697 331.515 117.319 332.075C116.955 332.635 116.423 333.062 115.723 333.356ZM108.751 332.579H112.405C113.287 332.579 113.959 332.404 114.421 332.054C114.883 331.704 115.114 331.186 115.114 330.5C115.114 329.814 114.883 329.296 114.421 328.946C113.959 328.582 113.287 328.4 112.405 328.4H108.751V332.579ZM112.951 338.9C114.883 338.9 115.849 338.172 115.849 336.716C115.849 335.288 114.883 334.574 112.951 334.574H108.751V338.9H112.951ZM134.205 338.711V341H123.18V326.3H133.911V328.589H125.91V332.411H133.008V334.658H125.91V338.711H134.205ZM149.386 328.61H144.514V341H141.805V328.61H136.954V326.3H149.386V328.61ZM159.809 341.21C158.311 341.21 156.96 340.888 155.756 340.244C154.552 339.586 153.607 338.683 152.921 337.535C152.235 336.373 151.892 335.078 151.892 333.65C151.892 332.222 152.235 330.934 152.921 329.786C153.607 328.624 154.552 327.721 155.756 327.077C156.96 326.419 158.311 326.09 159.809 326.09C161.307 326.09 162.658 326.419 163.862 327.077C165.066 327.721 166.011 328.617 166.697 329.765C167.383 330.913 167.726 332.208 167.726 333.65C167.726 335.092 167.383 336.387 166.697 337.535C166.011 338.683 165.066 339.586 163.862 340.244C162.658 340.888 161.307 341.21 159.809 341.21ZM159.809 338.816C160.789 338.816 161.671 338.599 162.455 338.165C163.239 337.717 163.855 337.101 164.303 336.317C164.751 335.519 164.975 334.63 164.975 333.65C164.975 332.67 164.751 331.788 164.303 331.004C163.855 330.206 163.239 329.59 162.455 329.156C161.671 328.708 160.789 328.484 159.809 328.484C158.829 328.484 157.947 328.708 157.163 329.156C156.379 329.59 155.763 330.206 155.315 331.004C154.867 331.788 154.643 332.67 154.643 333.65C154.643 334.63 154.867 335.519 155.315 336.317C155.763 337.101 156.379 337.717 157.163 338.165C157.947 338.599 158.829 338.816 159.809 338.816ZM181.896 333.356C182.834 333.608 183.548 334.042 184.038 334.658C184.528 335.26 184.773 336.016 184.773 336.926C184.773 338.214 184.297 339.215 183.345 339.929C182.393 340.643 181.014 341 179.208 341H172.236V326.3H178.809C180.461 326.3 181.749 326.629 182.673 327.287C183.597 327.945 184.059 328.876 184.059 330.08C184.059 330.85 183.87 331.515 183.492 332.075C183.128 332.635 182.596 333.062 181.896 333.356ZM174.924 332.579H178.578C179.46 332.579 180.132 332.404 180.594 332.054C181.056 331.704 181.287 331.186 181.287 330.5C181.287 329.814 181.056 329.296 180.594 328.946C180.132 328.582 179.46 328.4 178.578 328.4H174.924V332.579ZM179.124 338.9C181.056 338.9 182.022 338.172 182.022 336.716C182.022 335.288 181.056 334.574 179.124 334.574H174.924V338.9H179.124Z" fill="#181818"/>
<rect x="10" width="15" height="15" fill="#181818"/>
<rect x="33" width="15" height="15" fill="#D4D4DA"/>
<rect x="10" y="22" width="15" height="15" fill="#D4D4DA"/>
<path d="M2 109L12.1667 118L22.3333 109L32.5 118L42.6667 109L52.8333 118L63 109" stroke="#F0E819" stroke-width="5"/>
<mask id="mask0" mask-type="alpha" maskUnits="userSpaceOnUse" x="1" y="275" width="66" height="66">
<path d="M1 275L32.2632 307.132L67 341H1V275Z" fill="#C4C4C4"/>
</mask>
<g mask="url(#mask0)">
<path fill-rule="evenodd" clip-rule="evenodd" d="M-23.2148 264.846L73.3461 361.407L68.5181 366.236L-28.0429 269.674L-23.2148 264.846ZM-34.0776 275.709L62.4833 372.271L57.6553 377.099L9.3748 328.818L-38.9057 280.537L-34.0776 275.709ZM-44.9412 286.572L51.6197 383.134L46.7917 387.962L-49.7693 291.4L-44.9412 286.572Z" fill="#181818"/>
</g>
<path d="M297.355 272.678L279.839 262.564L279.839 282.791L297.355 272.678Z" fill="#181818"/>
<path d="M297.355 302.126L279.839 292.013L279.839 312.24L297.355 302.126Z" fill="#181818"/>
<path d="M297.355 332.083L279.839 321.53L279.839 342.636L297.355 332.083Z" fill="#F0E819"/>
</svg>
