<svg width="276" height="304" viewBox="0 0 276 304" fill="none" xmlns="http://www.w3.org/2000/svg">
<rect x="4.94043" y="36.3145" width="3.9406" height="3.9406" transform="rotate(90 4.94043 36.3145)" fill="#85858C"/>
<rect x="4.94043" y="54.9998" width="3.9406" height="3.9406" transform="rotate(90 4.94043 54.9998)" fill="#85858C"/>
<rect x="23.0977" y="36.3145" width="3.9406" height="3.9406" transform="rotate(90 23.0977 36.3145)" fill="#85858C"/>
<rect x="23.0977" y="55" width="3.9406" height="3.9406" transform="rotate(90 23.0977 55)" fill="#85858C"/>
<rect x="41.4692" y="36.3145" width="3.9406" height="3.9406" transform="rotate(90 41.4692 36.3145)" fill="#85858C"/>
<rect x="41.4692" y="55" width="3.9406" height="3.9406" transform="rotate(90 41.4692 55)" fill="#85858C"/>
<rect x="4.94043" y="18.1572" width="3.9406" height="3.9406" transform="rotate(90 4.94043 18.1572)" fill="#85858C"/>
<rect x="23.0977" y="18.1575" width="3.9406" height="3.9406" transform="rotate(90 23.0977 18.1575)" fill="#85858C"/>
<rect x="41.4692" y="18.1575" width="3.9406" height="3.9406" transform="rotate(90 41.4692 18.1575)" fill="#85858C"/>
<rect x="4.94043" width="3.9406" height="3.9406" transform="rotate(90 4.94043 0)" fill="#85858C"/>
<rect x="23.0977" width="3.9406" height="3.9406" transform="rotate(90 23.0977 0)" fill="#85858C"/>
<rect x="41.4692" width="3.9406" height="3.9406" transform="rotate(90 41.4692 0)" fill="#85858C"/>
<path d="M-5.10454e-07 229.678L17.5167 219.564L17.5167 239.791L-5.10454e-07 229.678Z" fill="#181818"/>
<path d="M-5.10454e-07 259.126L17.5167 249.013L17.5167 269.239L-5.10454e-07 259.126Z" fill="#F0E819"/>
<path d="M0.00097603 289.082L17.5177 278.529L17.5177 299.635L0.00097603 289.082Z" fill="#181818"/>
<path d="M81.562 301.312L81.541 291.568L76.711 299.632H75.493L70.663 291.694V301.312H68.08V286.612H70.327L76.144 296.335L81.898 286.612H84.124L84.166 301.312H81.562ZM99.4937 297.91H92.1437L90.6947 301.312H87.8807L94.4957 286.612H97.1837L103.82 301.312H100.964L99.4937 297.91ZM98.5907 295.768L95.8187 289.342L93.0677 295.768H98.5907ZM117.474 288.922H112.602V301.312H109.893V288.922H105.042V286.612H117.474V288.922ZM132.323 299.023V301.312H121.298V286.612H132.029V288.901H124.028V292.723H131.126V294.97H124.028V299.023H132.323ZM142.884 286.612C144.158 286.612 145.264 286.822 146.202 287.242C147.154 287.662 147.882 288.264 148.386 289.048C148.89 289.832 149.142 290.763 149.142 291.841C149.142 292.905 148.89 293.836 148.386 294.634C147.882 295.418 147.154 296.02 146.202 296.44C145.264 296.86 144.158 297.07 142.884 297.07H139.566V301.312H136.836V286.612H142.884ZM142.758 294.76C143.948 294.76 144.851 294.508 145.467 294.004C146.083 293.5 146.391 292.779 146.391 291.841C146.391 290.903 146.083 290.182 145.467 289.678C144.851 289.174 143.948 288.922 142.758 288.922H139.566V294.76H142.758ZM153.216 286.612H155.904V297.049L163.8 286.612H166.341V301.312H163.653V290.896L155.757 301.312H153.216V286.612ZM181.677 297.91H174.327L172.878 301.312H170.064L176.679 286.612H179.367L186.003 301.312H183.147L181.677 297.91ZM180.774 295.768L178.002 289.342L175.251 295.768H180.774ZM202.387 286.612V301.312H199.699V288.922H193.903L193.777 292.597C193.707 294.655 193.539 296.328 193.273 297.616C193.007 298.89 192.58 299.863 191.992 300.535C191.404 301.193 190.592 301.522 189.556 301.522C189.192 301.522 188.695 301.452 188.065 301.312L188.254 298.939C188.436 298.995 188.646 299.023 188.884 299.023C189.738 299.023 190.34 298.519 190.69 297.511C191.054 296.489 191.278 294.886 191.362 292.702L191.572 286.612H202.387ZM217.737 297.91H210.387L208.938 301.312H206.124L212.739 286.612H215.427L222.063 301.312H219.207L217.737 297.91ZM216.834 295.768L214.062 289.342L211.311 295.768H216.834Z" fill="#181818"/>
<path d="M199.955 34.6125L199.964 34.6204L199.973 34.6281C211.179 43.948 216.675 57.5288 218.111 78.0633C218.107 91.3195 216.695 103.266 211.959 115.85C204.166 136.558 193.793 152.071 181.544 167.047C175.633 174.275 169.295 181.365 162.585 188.872L161.817 189.731C154.83 197.548 147.458 205.822 139.82 215.115L137.132 218.385H141.365H218.083V253.273L204.089 263.384L85.748 252.471V246.198C85.748 234.195 88.0799 223.327 92.7109 213.561L92.7303 213.52L92.7479 213.478C96.6976 204.069 101.756 195.389 107.922 187.433C114.406 179.147 123.03 169.129 133.806 157.374L133.813 157.366C143.613 146.561 151.305 137.568 156.872 130.398C162.753 123.147 167.61 115.151 171.443 106.414C175.573 97.3279 177.642 87.8486 177.642 77.9939C177.642 71.0019 175.782 64.8251 172.009 59.5488C168.027 53.726 161.672 50.9657 153.422 50.9657C144.72 50.9657 138.03 54.6169 133.634 61.8664L133.62 61.8905L133.606 61.915C129.618 68.9291 127.695 77.7646 127.695 88.2996V100.899L114.033 110.833L88.4507 100.445C88.3154 99.759 88.16 98.7254 87.9962 97.2864C87.7549 94.9228 87.6311 92.0538 87.6311 88.6676C87.6311 85.9588 87.6088 83.4193 87.5878 81.0269C87.5161 72.8684 87.4595 66.4219 88.354 60.8148C89.477 53.7758 92.0924 48.2153 98.2516 42.6566C104.708 36.9441 114.049 31.2629 124.245 27.0119C134.451 22.7569 145.358 20 154.928 20C173.648 20 188.594 24.9272 199.955 34.6125Z" fill="#DADADF" stroke="#181818" stroke-width="4"/>
<path d="M231.083 116.554C235.937 103.655 237.364 91.4324 237.364 77.9938C236.787 69.6987 235.677 62.9419 233.756 57M237.335 216.385V254.295L221.904 265.445" stroke="#181818" stroke-width="4"/>
<path d="M139.469 29.2844C158.551 29.2844 173.992 34.3146 185.793 44.3749C197.593 54.1898 203.494 69.2803 203.494 89.6464C203.494 102.651 200.606 115.411 194.832 127.925C189.308 140.439 182.529 151.849 174.494 162.154C166.711 172.215 157.044 183.502 145.495 196.016L131.937 211.474C127.166 217.118 123.275 222.516 120.262 227.669H204.624V265.579H68.2886V257.482C68.2886 245.213 70.6738 234.049 75.4443 223.988C79.4615 214.419 84.6086 205.585 90.8855 197.488C97.4135 189.145 106.076 179.085 116.872 167.307C126.664 156.511 134.322 147.555 139.846 140.439C145.62 133.323 150.391 125.471 154.157 116.883C158.174 108.049 160.183 98.8479 160.183 89.2783C160.183 82.6532 158.425 76.8869 154.91 71.9794C151.395 66.8266 145.746 64.2502 137.963 64.2502C129.928 64.2502 123.902 67.5627 119.885 74.1878C116.119 80.8129 114.236 89.2783 114.236 99.584V113.202H71.3015C71.0504 112.466 70.7993 110.994 70.5483 108.785C70.2972 106.332 70.1717 103.387 70.1717 99.952C70.1717 76.3962 76.6997 58.7293 89.7557 46.9513C103.063 35.1734 119.634 29.2844 139.469 29.2844Z" fill="#181818"/>
<path d="M50 244L60.1667 253L70.3333 244L80.5 253L90.6667 244L100.833 253L111 244" stroke="#F0E819" stroke-width="5"/>
<path d="M218.179 218.007L203.203 229.601" stroke="#181818" stroke-width="4"/>
<path d="M138.466 217.524L121.074 229.601" stroke="#181818" stroke-width="4"/>
<rect x="264" y="266" width="12" height="35" fill="#181818"/>
<rect x="241" y="301" width="12" height="35" transform="rotate(-90 241 301)" fill="#181818"/>
<path d="M224.728 162L224.728 187.456" stroke="#F0E819" stroke-width="5"/>
<path d="M212 174.728L237.456 174.728" stroke="#F0E819" stroke-width="5"/>
<path d="M267 8H215L241 34L267 60V8Z" fill="#181818"/>
<path d="M276 0H224L250 26L276 52V0Z" fill="#F0E819"/>
<path d="M102 139C98.0424 139 45.0177 139 19 139" stroke="#D4D4DA" stroke-width="4"/>
<path d="M92 148C88.5192 148 41.883 148 19 148" stroke="#D4D4DA" stroke-width="4"/>
<path d="M82 157C78.996 157 38.7483 157 19 157" stroke="#D4D4DA" stroke-width="4"/>
<path d="M76 166C73.2821 166 36.8675 166 19 166" stroke="#D4D4DA" stroke-width="4"/>
<path d="M69 175C66.6159 175 34.6733 175 19 175" stroke="#D4D4DA" stroke-width="4"/>
</svg>
