<svg width="68" height="95" viewBox="0 0 68 95" fill="none" xmlns="http://www.w3.org/2000/svg">
<path fill-rule="evenodd" clip-rule="evenodd" d="M0 23.0977C0 21.7803 0.632602 20.5431 1.70055 19.7718L2.00276 19.5536C6.60783 16.2277 11.9059 13.9872 17.5 13L30 50.234V36.3018H31V53.2128L39.524 78.6033C40.476 79.7329 41 80.9668 41 82.2592C41 82.4773 40.9908 82.6969 40.9723 82.9175L41 83H40.965C40.4735 88.2293 34.8085 93.9999 24 93.9999C13.1915 93.9999 1.14692 88.2293 0.0768865 83H0V82.2592V23.0977Z" fill="#B4B4BE"/>
<mask id="path-2-inside-1" fill="white">
<path fill-rule="evenodd" clip-rule="evenodd" d="M6 22.2195H47V82.2592V82.685H46.981C46.5143 87.8964 37.5232 92.0529 26.5 92.0529C15.4768 92.0529 6.48566 87.8964 6.01903 82.685H6V82.2592V22.2195Z"/>
</mask>
<path fill-rule="evenodd" clip-rule="evenodd" d="M6 22.2195H47V82.2592V82.685H46.981C46.5143 87.8964 37.5232 92.0529 26.5 92.0529C15.4768 92.0529 6.48566 87.8964 6.01903 82.685H6V82.2592V22.2195Z" fill="#F0E819"/>
<path d="M47 22.2195H50V19.2195H47V22.2195ZM6 22.2195V19.2195H3V22.2195H6ZM47 82.685V85.685H50V82.685H47ZM46.981 82.685V79.685H44.2376L43.9929 82.4175L46.981 82.685ZM6.01903 82.685L9.00707 82.4175L8.76241 79.685H6.01903V82.685ZM6 82.685H3V85.685H6V82.685ZM47 19.2195H6V25.2195H47V19.2195ZM50 82.2592V22.2195H44V82.2592H50ZM50 82.685V82.2592H44V82.685H50ZM46.981 85.685H47V79.685H46.981V85.685ZM26.5 95.0529C32.352 95.0529 37.7985 93.9552 41.9504 92.0499C45.8952 90.2397 49.5856 87.2344 49.969 82.9526L43.9929 82.4175C43.9097 83.3471 42.8713 85.0257 39.448 86.5966C36.2319 88.0724 31.6712 89.0529 26.5 89.0529V95.0529ZM3.03098 82.9526C3.41437 87.2344 7.10483 90.2397 11.0496 92.0499C15.2015 93.9552 20.648 95.0529 26.5 95.0529V89.0529C21.3288 89.0529 16.7681 88.0724 13.552 86.5966C10.1287 85.0257 9.09031 83.3471 9.00707 82.4175L3.03098 82.9526ZM6 85.685H6.01903V79.685H6V85.685ZM3 82.2592V82.685H9V82.2592H3ZM3 22.2195V82.2592H9V22.2195H3Z" fill="#181818" mask="url(#path-2-inside-1)"/>
<path d="M45.5 22.0066C45.5 23.8766 43.9018 25.9947 40.3377 27.7344C36.8739 29.4252 31.9835 30.5132 26.5 30.5132C21.0165 30.5132 16.1261 29.4252 12.6623 27.7344C9.09821 25.9947 7.5 23.8766 7.5 22.0066C7.5 20.1366 9.09821 18.0186 12.6623 16.2789C16.1261 14.5881 21.0165 13.5 26.5 13.5C31.9835 13.5 36.8739 14.5881 40.3377 16.2789C43.9018 18.0186 45.5 20.1366 45.5 22.0066Z" fill="#F0E819" stroke="#181818" stroke-width="3"/>
<path d="M27.5 13.4297C35 13.9683 38 17.7182 38 20.2665C38 23.2414 33.299 25.3423 27.5 25.3423C22.485 25.3423 16.7954 23.9169 15.3487 21.4813C14.9178 20.7559 15.2212 19.8573 15.9557 19.4422C17.7628 18.4206 21.8283 17.3472 26.5 17.7182V24.3893" stroke="#181818" stroke-width="3"/>
<path d="M37 93.0062L37 35.8255C31.8333 34.8725 15.5 31.0604 9.49999 25.8188L9 26.5691L9 85.3821C13.8 91.1001 29.5 91.8943 37 93.0062Z" fill="#F0E819"/>
<path d="M19 49C25.5 44.5 21.5001 38 18.0002 32.5C22.3335 33.1667 38.2783 36.6357 35 37C26 38 33.5 50.5 25.5 53.0188C22 54.1207 24.1406 55.8212 27.5001 63.5C31.0002 71.5 28.5001 74 23 79C20.2712 81.4806 25.8335 89.6667 28.5001 92.5C24.3335 92 13.5356 89.6227 15.5002 88.5C19 86.5 15.4503 81.5 16.5001 78C17.9999 73 27.5001 72.5004 24.5 65C22.5 60 13.1862 53.0249 19 49Z" fill="white"/>
<path d="M9.49995 25.8188C13 30.5839 25 35.8255 37 35.8255L37 93.0062C26 93.9592 8.5 89.1941 7.5 82.523" stroke="#181818" stroke-width="3"/>
<path d="M66 9.62963C66 12.2888 63.7614 14.4444 61 14.4444C58.2386 14.4444 56 12.2888 56 9.62963C56 5.88477 59.8889 0 61 0C62.1111 0 66 5.88477 66 9.62963Z" fill="#181818"/>
<path d="M57 19.6667C57 20.9553 55.8807 22 54.5 22C53.1193 22 52 20.9553 52 19.6667C52 17.8519 53.9444 15 54.5 15C55.0556 15 57 17.8519 57 19.6667Z" fill="#181818"/>
<path d="M67 9L56 4" stroke="white" stroke-width="2"/>
<path d="M67.5 11L55 5.5" stroke="#181818" stroke-width="2"/>
</svg>
